<svg width="120" height="30" viewBox="0 0 120 30" fill="none" xmlns="http://www.w3.org/2000/svg">
<path d="M35.1057 8.88086C35.5767 8.88086 36.0157 8.96995 36.423 9.14813C36.8302 9.32629 37.1866 9.56813 37.4921 9.87359C37.7975 10.179 38.0394 10.5354 38.2175 10.9427C38.3957 11.3499 38.4848 11.789 38.4848 12.26V13.3672C38.4848 13.8254 38.3957 14.2645 38.2175 14.6845C38.0394 15.0917 37.7975 15.4481 37.4921 15.7536C37.1866 16.059 36.8302 16.3009 36.423 16.479C36.0157 16.6572 35.5767 16.7463 35.1057 16.7463H30.6194V21.5572C30.6194 21.6718 30.5812 21.7736 30.5048 21.8627C30.4285 21.939 30.333 21.9772 30.2185 21.9772H28.4239C28.3094 21.9772 28.2076 21.939 28.1185 21.8627C28.0421 21.7736 28.0039 21.6718 28.0039 21.5572V9.30086C28.0039 9.18631 28.0421 9.09086 28.1185 9.0145C28.2076 8.9254 28.3094 8.88086 28.4239 8.88086H35.1057ZM35.8694 12.26C35.8694 12.0436 35.793 11.8654 35.6403 11.7254C35.5003 11.5727 35.3221 11.4963 35.1057 11.4963H30.6194V14.1309H35.1057C35.3221 14.1309 35.5003 14.0608 35.6403 13.9209C35.793 13.7681 35.8694 13.5836 35.8694 13.3672V12.26ZM44.6753 21.9772C44.2171 21.9772 43.7845 21.8881 43.3771 21.71C42.9699 21.5318 42.6135 21.29 42.308 20.9845C42.0026 20.679 41.7608 20.3227 41.5826 19.9154C41.4044 19.5082 41.3153 19.0691 41.3153 18.5981V9.30086C41.3153 9.18631 41.3535 9.09086 41.4299 9.0145C41.519 8.9254 41.6208 8.88086 41.7353 8.88086H43.5108C43.6253 8.88086 43.7208 8.9254 43.7971 9.0145C43.8862 9.09086 43.9308 9.18631 43.9308 9.30086V18.5981C43.9308 18.8145 44.0008 18.999 44.1408 19.1518C44.2935 19.2917 44.4717 19.3618 44.6753 19.3618H48.4171C48.6335 19.3618 48.8117 19.2917 48.9517 19.1518C49.0917 18.999 49.1617 18.8145 49.1617 18.5981V9.30086C49.1617 9.18631 49.1999 9.09086 49.2762 9.0145C49.3653 8.9254 49.4671 8.88086 49.5817 8.88086H51.3762C51.4908 8.88086 51.5862 8.9254 51.6626 9.0145C51.7517 9.09086 51.7962 9.18631 51.7962 9.30086V18.5981C51.7962 19.0691 51.7072 19.5082 51.529 19.9154C51.3508 20.3227 51.109 20.679 50.8035 20.9845C50.498 21.29 50.1353 21.5318 49.7153 21.71C49.3081 21.8881 48.8753 21.9772 48.4171 21.9772H44.6753ZM64.325 21.9772H55.4095C55.295 21.9772 55.1931 21.939 55.1041 21.8627C55.0277 21.7863 54.9895 21.6909 54.9895 21.5763V17.4527C54.9895 17.3381 55.0213 17.2172 55.085 17.09C55.1613 16.9627 55.2504 16.8672 55.3522 16.8036L62.1295 12.3554V11.5154H55.4095C55.295 11.5154 55.1931 11.4772 55.1041 11.4009C55.0277 11.3117 54.9895 11.21 54.9895 11.0954V9.30086C54.9895 9.18631 55.0277 9.09086 55.1041 9.0145C55.1931 8.9254 55.295 8.88086 55.4095 8.88086H64.325C64.4395 8.88086 64.535 8.9254 64.6113 9.0145C64.7004 9.09086 64.745 9.18631 64.745 9.30086V13.4245C64.745 13.539 64.7131 13.6599 64.6495 13.7872C64.5858 13.9018 64.5031 13.9909 64.4013 14.0545L57.6241 18.5218V19.3618H64.325C64.4395 19.3618 64.535 19.4063 64.6113 19.4954C64.7004 19.5718 64.745 19.6672 64.745 19.7818V21.5763C64.745 21.6909 64.7004 21.7863 64.6113 21.8627C64.535 21.939 64.4395 21.9772 64.325 21.9772Z" fill="white"/>
<path d="M75.0391 8.88086C75.5102 8.88086 75.9493 8.96995 76.3564 9.14813C76.7641 9.32629 77.12 9.56813 77.4255 9.87359C77.7309 10.179 77.973 10.5354 78.1509 10.9427C78.3296 11.3499 78.4182 11.789 78.4182 12.26V13.3672C78.4182 13.8254 78.3296 14.2645 78.1509 14.6845C77.973 15.0917 77.7309 15.4481 77.4255 15.7536C77.12 16.059 76.7641 16.3009 76.3564 16.479C75.9493 16.6572 75.5102 16.7463 75.0391 16.7463H70.5527V21.5572C70.5527 21.6718 70.5146 21.7736 70.4382 21.8627C70.3618 21.939 70.2664 21.9772 70.1518 21.9772H68.3573C68.2427 21.9772 68.1412 21.939 68.052 21.8627C67.9757 21.7736 67.9375 21.6718 67.9375 21.5572V9.30086C67.9375 9.18631 67.9757 9.09086 68.052 9.0145C68.1412 8.9254 68.2427 8.88086 68.3573 8.88086H75.0391ZM75.8027 12.26C75.8027 12.0436 75.7264 11.8654 75.5737 11.7254C75.4339 11.5727 75.2559 11.4963 75.0391 11.4963H70.5527V14.1309H75.0391C75.2559 14.1309 75.4339 14.0608 75.5737 13.9209C75.7264 13.7681 75.8027 13.5836 75.8027 13.3672V12.26ZM88.2746 8.88086C88.3891 8.88086 88.4968 8.91904 88.5991 8.9954C88.7137 9.07177 88.79 9.16088 88.8282 9.26268L91.5773 16.0972C91.6155 16.199 91.6468 16.3327 91.6727 16.4981C91.7109 16.6509 91.73 16.7845 91.73 16.899V21.5572C91.73 21.6718 91.685 21.7736 91.5964 21.8627C91.52 21.939 91.4246 21.9772 91.31 21.9772H89.5155C89.4009 21.9772 89.2987 21.939 89.21 21.8627C89.1337 21.7736 89.0955 21.6718 89.0955 21.5572V19.3618H83.8646V21.5572C83.8646 21.6718 83.8196 21.7736 83.7309 21.8627C83.6546 21.939 83.5591 21.9772 83.4446 21.9772H81.6691C81.5546 21.9772 81.4523 21.939 81.3637 21.8627C81.2873 21.7736 81.2491 21.6718 81.2491 21.5572V16.899C81.2491 16.7845 81.2614 16.6509 81.2873 16.4981C81.3255 16.3327 81.3637 16.199 81.4018 16.0972L84.1318 9.26268C84.1823 9.16088 84.2587 9.07177 84.3609 8.9954C84.4755 8.91904 84.59 8.88086 84.7046 8.88086H88.2746ZM83.96 16.7463H89L86.9 11.4963H86.06L83.96 16.7463ZM104.621 8.88086C104.736 8.88086 104.831 8.9254 104.908 9.0145C104.984 9.09086 105.022 9.18631 105.022 9.30086V12.2409C105.022 12.3554 104.997 12.4827 104.946 12.6227C104.895 12.7627 104.825 12.8772 104.736 12.9663L101.108 16.8418V21.5763C101.108 21.6781 101.064 21.7736 100.975 21.8627C100.898 21.939 100.803 21.9772 100.688 21.9772H98.8939C98.7793 21.9772 98.6777 21.939 98.5884 21.8627C98.5121 21.7736 98.4739 21.6781 98.4739 21.5763V16.8418L94.8466 12.9663C94.758 12.8772 94.6877 12.7627 94.6366 12.6227C94.5862 12.4827 94.5602 12.3554 94.5602 12.2409V9.30086C94.5602 9.18631 94.5984 9.09086 94.6748 9.0145C94.7512 8.9254 94.8466 8.88086 94.9612 8.88086H96.7557C96.8702 8.88086 96.9657 8.9254 97.0421 9.0145C97.1314 9.09086 97.1757 9.18631 97.1757 9.30086V11.21C97.1757 11.3245 97.2016 11.4518 97.2521 11.5918C97.3162 11.7317 97.3857 11.84 97.4621 11.9163L99.7912 14.3981L102.12 11.9163C102.197 11.84 102.261 11.7317 102.311 11.5918C102.375 11.4518 102.407 11.3245 102.407 11.21V9.30086C102.407 9.18631 102.445 9.09086 102.521 9.0145C102.61 8.9254 102.712 8.88086 102.827 8.88086H104.621ZM116.119 12.8136C116.005 12.8136 115.903 12.7754 115.814 12.699C115.738 12.6099 115.699 12.5081 115.699 12.3936V12.26C115.699 12.0436 115.63 11.8654 115.489 11.7254C115.35 11.5727 115.172 11.4963 114.955 11.4963H111.213C111.01 11.4963 110.831 11.5727 110.678 11.7254C110.539 11.8654 110.468 12.0436 110.468 12.26V13.3672C110.468 13.5836 110.539 13.7681 110.678 13.9209C110.831 14.0608 111.01 14.1309 111.213 14.1309H114.955C115.413 14.1309 115.846 14.22 116.253 14.3981C116.661 14.5763 117.017 14.8181 117.322 15.1236C117.628 15.429 117.87 15.7854 118.048 16.1927C118.226 16.5999 118.315 17.0327 118.315 17.4909V18.5981C118.315 19.0691 118.226 19.5082 118.048 19.9154C117.87 20.3227 117.628 20.679 117.322 20.9845C117.017 21.29 116.661 21.5318 116.253 21.71C115.846 21.8881 115.413 21.9772 114.955 21.9772H111.213C110.755 21.9772 110.323 21.8881 109.915 21.71C109.508 21.5318 109.151 21.29 108.846 20.9845C108.54 20.679 108.299 20.3227 108.12 19.9154C107.942 19.5082 107.853 19.0691 107.853 18.5981V18.4645C107.853 18.35 107.891 18.2545 107.968 18.1781C108.057 18.089 108.158 18.0445 108.273 18.0445H110.048C110.163 18.0445 110.258 18.089 110.335 18.1781C110.424 18.2545 110.468 18.35 110.468 18.4645V18.5981C110.468 18.8145 110.539 18.999 110.678 19.1518C110.831 19.2917 111.01 19.3618 111.213 19.3618H114.955C115.172 19.3618 115.35 19.2917 115.489 19.1518C115.63 18.999 115.699 18.8145 115.699 18.5981V17.4909C115.699 17.2745 115.63 17.0963 115.489 16.9563C115.35 16.8163 115.172 16.7463 114.955 16.7463H111.213C110.755 16.7463 110.323 16.6572 109.915 16.479C109.508 16.3009 109.151 16.059 108.846 15.7536C108.54 15.4481 108.299 15.0917 108.12 14.6845C107.942 14.2645 107.853 13.8254 107.853 13.3672V12.26C107.853 11.789 107.942 11.3499 108.12 10.9427C108.299 10.5354 108.54 10.179 108.846 9.87359C109.151 9.56813 109.508 9.32629 109.915 9.14813C110.323 8.96995 110.755 8.88086 111.213 8.88086H114.955C115.413 8.88086 115.846 8.96995 116.253 9.14813C116.661 9.32629 117.017 9.56813 117.322 9.87359C117.628 10.179 117.87 10.5354 118.048 10.9427C118.226 11.3499 118.315 11.789 118.315 12.26V12.3936C118.315 12.5081 118.277 12.6099 118.2 12.699C118.124 12.7754 118.028 12.8136 117.914 12.8136H116.119Z" fill="#DCF34E"/>
<path d="M1.57782 13.35C2.04976 12.8781 2.81495 12.8781 3.2869 13.35L4.51075 14.5736C4.98269 15.0455 4.98269 15.8105 4.51075 16.2824L3.2869 17.506C3.2179 17.575 3.14264 17.6339 3.06295 17.6827C2.59749 17.9678 1.98077 17.9089 1.57782 17.506L0.353962 16.2824C-0.117987 15.8105 -0.117987 15.0455 0.353962 14.5736L1.57782 13.35Z" fill="white"/>
<path d="M5.93328 8.95351C6.39253 8.49435 7.12943 8.48198 7.60364 8.91643C7.61673 8.92845 7.62968 8.94081 7.64236 8.95351L8.86623 10.1771C8.91239 10.2233 8.95405 10.2723 8.99121 10.3235C9.2698 10.7078 9.29414 11.2192 9.0643 11.6258C9.01159 11.7189 8.94559 11.8065 8.86623 11.8859L7.64236 13.1096C7.59157 13.1603 7.67339 13.0697 7.61652 13.1096C7.25161 13.5364 6.35446 13.5306 5.93328 13.1096L4.70943 11.8859C4.23748 11.4141 4.23748 10.649 4.70943 10.1771L5.93328 8.95351Z" fill="white"/>
<path fill-rule="evenodd" clip-rule="evenodd" d="M7.72734 4.08023C8.44577 3.38307 9.59341 3.4002 10.2907 4.11848L18.5775 12.6548C20.2044 14.3308 20.1645 17.0082 18.4881 18.6348L9.95027 26.9202C9.23191 27.6173 8.0842 27.6001 7.38698 26.8819C6.68967 26.1636 6.7068 25.0162 7.42523 24.319L8.86488 22.9219L9.88713 21.9299L15.9631 16.0337C16.2025 15.8013 16.2083 15.4188 15.9758 15.1795L9.89627 8.91674L9.10284 8.09943L7.68909 6.6431C6.99179 5.92482 7.00891 4.77738 7.72734 4.08023Z" fill="#DCF34E"/>
<path d="M5.93328 17.5805C6.40523 17.1086 7.17041 17.1086 7.64236 17.5805L7.74811 17.6842L8.86623 18.8041C8.94559 18.8834 9.01159 18.9711 9.0643 19.0643C9.29414 19.4708 9.2698 19.9821 8.9912 20.3665C8.95405 20.4177 8.91239 20.4667 8.86623 20.5128L7.64236 21.7365C7.5647 21.8141 7.4792 21.8789 7.38832 21.931C6.92666 22.1956 6.32761 22.1307 5.93328 21.7365L4.70943 20.5128C4.27735 20.0808 4.24085 19.4031 4.59993 18.9296C4.63306 18.8859 4.66956 18.844 4.70943 18.8041L5.82953 17.6842L5.93328 17.5805Z" fill="white"/>
<path d="M10.2883 13.182C10.7603 12.7102 11.5254 12.7102 11.9974 13.182L13.2212 14.4057C13.6932 14.8775 13.6932 15.6426 13.2212 16.1145L11.9974 17.3381C11.6278 17.7075 11.0785 17.7877 10.6309 17.5786C10.5069 17.5207 10.3907 17.4405 10.2883 17.3381L9.16359 16.2136L9.06445 16.1145C8.61827 15.6684 8.69647 14.9254 8.99136 14.5732C9.01434 14.5458 9.03868 14.4315 9.06445 14.4057L10.2253 13.245L10.2883 13.182Z" fill="white"/>
<path d="M7.64224 8.954L8.86611 10.1776C8.91227 10.2238 8.95392 10.2728 8.99108 10.324L9.03506 9.95799C9.05388 9.80152 9.12636 9.65636 9.24008 9.54727L9.89749 8.91692L9.10406 8.09961L8.39531 8.74073C8.26999 8.85413 8.10697 8.91692 7.93795 8.91692H7.60352C7.61661 8.92894 7.62956 8.94129 7.64224 8.954Z" fill="white"/>
<path d="M7.74805 17.6816L8.86616 18.8015C8.94552 18.8808 9.01152 18.9685 9.06423 19.0617V18.9363C9.06423 18.7653 9.12846 18.6006 9.24416 18.4748L9.76023 17.9135C9.84982 17.8161 9.96586 17.7468 10.0941 17.7143L10.6307 17.5779C10.5067 17.5199 10.3905 17.4398 10.2881 17.3373L9.16337 16.2129L9.09784 16.6739C9.07609 16.8271 9.00293 16.9682 8.89036 17.0742L8.41459 17.5225C8.25362 17.6741 8.02909 17.7383 7.81234 17.6945L7.74805 17.6816Z" fill="white"/>
<path d="M3.28711 13.3509L4.51096 14.5745V14.4146C4.51096 14.2392 4.57851 14.0706 4.69956 13.9438L5.22645 13.3918C5.31709 13.2968 5.43321 13.23 5.56088 13.1994L5.93288 13.1104L4.70903 11.8867V12.1207C4.70903 12.3009 4.6377 12.4738 4.51061 12.6015L3.9651 13.1499C3.83714 13.2786 3.66317 13.3509 3.48171 13.3509H3.28711Z" fill="white"/>
<path d="M4.5103 16.2832L3.28645 17.5069C3.21746 17.5758 3.14219 17.6347 3.0625 17.6835L3.56844 17.743C3.69654 17.7581 3.81772 17.8092 3.91794 17.8905L4.30704 18.2057C4.4379 18.3116 4.52489 18.4623 4.55126 18.6287L4.59887 18.9289C4.632 18.8852 4.6685 18.8433 4.70837 18.8034L5.82847 17.6835L5.73833 17.6996C5.50599 17.741 5.26878 17.6592 5.11121 17.4836L4.73752 17.067C4.64713 16.9662 4.58879 16.8408 4.56992 16.7067L4.5103 16.2832Z" fill="white"/>
<path d="M8.86494 11.8871L7.64108 13.1107C7.59028 13.1615 7.6721 13.0709 7.61523 13.1107L7.91748 13.1985C8.02651 13.23 8.12585 13.2884 8.20658 13.3681L8.78721 13.9415C8.91689 14.0696 8.98992 14.2443 8.98992 14.4266V14.5749C9.01289 14.5475 9.03723 14.4331 9.06301 14.4073L10.2239 13.2466L10.165 13.2446C9.99233 13.2388 9.82835 13.1675 9.7061 13.0454L9.26271 12.6021C9.13487 12.4742 9.06301 12.3007 9.06301 12.1199V11.627C9.0103 11.7201 8.9443 11.8077 8.86494 11.8871Z" fill="white"/>
<path d="M8.86463 20.5116L7.64076 21.7353C7.5631 21.8129 7.47761 21.8777 7.38672 21.9298H7.75238C7.96129 21.9298 8.15867 22.0256 8.28795 22.1897L8.86463 22.9218L9.88688 21.9298L9.22995 21.2591C9.12167 21.1486 9.05424 21.0045 9.03863 20.8506L8.9896 20.3652C8.95245 20.4165 8.91079 20.4655 8.86463 20.5116Z" fill="white"/>
</svg>
