<svg width="120" height="38" viewBox="0 0 120 38" fill="none" xmlns="http://www.w3.org/2000/svg">
<path fill-rule="evenodd" clip-rule="evenodd" d="M0 16.9787V0H29.0909V10.9149H5.3265V16.9787H0ZM23.7644 4.85106H5.3265V6.06383H23.7644V4.85106Z" fill="#448AFF"/>
<path fill-rule="evenodd" clip-rule="evenodd" d="M0 38.0002V21.0215H29.0909V31.9364H5.3265V38.0002H0ZM23.7644 25.8725H5.3265V27.0853H23.7644V25.8725Z" fill="#448AFF"/>
<path d="M67.5872 21.0215H62.6265V31.9364H85.1405V33.1491H62.6265V38.0002H90.1012V21.0215H85.1405V27.0853H67.5872V21.0215Z" fill="#448AFF"/>
<path d="M62.6265 11.7234L77.785 5.25532H62.6265V0H90.1012V5.25532L74.9427 11.7234H90.1012V16.9787H62.6265V11.7234Z" fill="#448AFF"/>
<path d="M92.5254 11.7234L107.684 5.25532H92.5254V0H120V5.25532L104.842 11.7234H120V16.9787H92.5254V11.7234Z" fill="#448AFF"/>
<path d="M31.1113 0H36.3639V8.89362H54.9497V0H60.2022V16.9787H54.9497V14.1489H31.1113V0Z" fill="#448AFF"/>
<path fill-rule="evenodd" clip-rule="evenodd" d="M60.2022 21.0215H31.1113V25.8725H54.5457V27.0853H31.1113V38.0002H60.2022V21.0215ZM36.7679 31.9364H54.5457V33.1491H36.7679V31.9364Z" fill="#448AFF"/>
<path d="M120 21.0215H92.5254V31.9364H114.658V33.5534H92.5254V38.0002H120V27.4896H97.8677V25.8725H120V21.0215Z" fill="#448AFF"/>
</svg>
