<svg width="25" height="24" viewBox="0 0 25 24" fill="none" xmlns="http://www.w3.org/2000/svg">
<ellipse opacity="0.2" cx="12.3664" cy="12" rx="12.3664" ry="12" fill="white"/>
<g clip-path="url(#clip0_1316_765)">
<path d="M7.58493 14.6975C7.67535 14.6098 7.79968 14.5586 7.93154 14.5586H19.8895C20.108 14.5586 20.2172 14.8145 20.0628 14.9644L17.7006 17.2566C17.6102 17.3443 17.4858 17.3955 17.354 17.3955H5.39604C5.17752 17.3955 5.06827 17.1396 5.22273 16.9897L7.58493 14.6975Z" fill="white"/>
<path d="M7.58493 6.13892C7.67912 6.05118 7.80345 6 7.93154 6H19.8895C20.108 6 20.2172 6.25591 20.0628 6.4058L17.7006 8.69801C17.6102 8.78575 17.4858 8.83694 17.354 8.83694H5.39604C5.17752 8.83694 5.06827 8.58103 5.22273 8.43114L7.58493 6.13892Z" fill="white"/>
<path d="M17.7006 10.3928C17.6102 10.3051 17.4858 10.2539 17.354 10.2539H5.39604C5.17752 10.2539 5.06827 10.5098 5.22273 10.6597L7.58493 12.9519C7.67535 13.0397 7.79968 13.0908 7.93154 13.0908H19.8895C20.108 13.0908 20.2172 12.8349 20.0628 12.685L17.7006 10.3928Z" fill="white"/>
</g>
<defs>
<clipPath id="clip0_1316_765">
<rect width="14.9832" height="11.3953" fill="white" transform="translate(5.15039 6)"/>
</clipPath>
</defs>
</svg>
